<svg id="Layer_1" data-name="Layer 1" xmlns="http://www.w3.org/2000/svg" viewBox="0 0 120 120">
  <g>
    <path id="icon_contacte-nos_copy" data-name="icon contacte-nos copy" d="M110.15,60.56a51.24,51.24,0,1,0-51.23,51.23A51.38,51.38,0,0,0,110.15,60.56Zm-95.3,0A44.41,44.41,0,0,1,58.92,16.49,44.4,44.4,0,0,1,103,60.56a44.39,44.39,0,0,1-44.06,44.06h0A44.06,44.06,0,0,1,14.85,60.56Z" style="fill: #e31d1a"/>
    <g>
      <path d="M37.62,70.45A1.42,1.42,0,0,0,39,69V63.35H57.5V69a1.42,1.42,0,1,0,2.84,0V63.35H78.8V69a1.42,1.42,0,1,0,2.84,0V61.93a1.43,1.43,0,0,0-1.43-1.43H60.34V56.25a1.42,1.42,0,0,0-2.84,0V60.5H37.62a1.43,1.43,0,0,0-1.42,1.43V69a1.43,1.43,0,0,0,1.42,1.43Zm0,0" style="fill: #e31d1a"/>
      <path d="M58.92,41.17a4.38,4.38,0,1,0-4.42-4.38,4.4,4.4,0,0,0,4.42,4.38Zm0,0" style="fill: #e31d1a"/>
      <path d="M67.4,51.9l-3-7.79c-.08-.2-.71-1.51-1.89-1.51H55.27a2.13,2.13,0,0,0-1.88,1.5l-3,7.79c-.08.2,0,.44.38.44H53a.56.56,0,0,0,.52-.34l1.4-3.78s.18-.48.18.05c0,.72,0,2.64,0,3.56,0,.31,0,.51.42.51h7.18c.51,0,.45-.26.45-.66,0-1,0-2.75,0-3.44,0-.36.13-.12.13-.12l1.32,3.82a.6.6,0,0,0,.59.4H67c.43,0,.48-.24.41-.44Zm-6.75-2.24L59.17,51a.38.38,0,0,1-.51,0l-1.48-1.37A.64.64,0,0,1,57,49.1l.77-3.7s0-.22,0-.26-.07-.78-.07-.78a.32.32,0,0,1,.32-.34h1.69a.32.32,0,0,1,.32.34s0,.59-.06.78a1.27,1.27,0,0,0,0,.26l.78,3.7a.68.68,0,0,1-.19.56Zm0,0" style="fill: #e31d1a"/>
      <path d="M37.62,79.89a3.46,3.46,0,1,0-3.49-3.46,3.47,3.47,0,0,0,3.49,3.46Zm0,0" style="fill: #e31d1a"/>
      <path d="M44.31,88.35,42,82.2c-.06-.15-.56-1.18-1.49-1.18H34.75a1.69,1.69,0,0,0-1.49,1.17l-2.33,6.15c-.06.16,0,.35.31.35H33a.44.44,0,0,0,.41-.27l1.11-3s.14-.38.14,0c0,.57,0,2.09,0,2.82,0,.24,0,.4.33.4h5.66c.4,0,.36-.21.35-.52V85.46c0-.28.1-.09.1-.09l1,3a.49.49,0,0,0,.47.32H44c.34,0,.38-.19.32-.35ZM39,86.59l-1.17,1.07a.3.3,0,0,1-.4,0l-1.17-1.07a.53.53,0,0,1-.14-.45l.61-2.91a2.11,2.11,0,0,0,0-.21c0-.15,0-.61,0-.61a.25.25,0,0,1,.25-.27h1.34a.25.25,0,0,1,.25.27s0,.46,0,.61a2.11,2.11,0,0,0,0,.21l.61,2.91a.53.53,0,0,1-.14.45Zm0,0" style="fill: #e31d1a"/>
      <path d="M58.92,79.89a3.46,3.46,0,1,0-3.49-3.46,3.47,3.47,0,0,0,3.49,3.46Zm0,0" style="fill: #e31d1a"/>
      <path d="M65.61,88.35,63.28,82.2c-.06-.15-.56-1.18-1.49-1.18H56a1.66,1.66,0,0,0-1.48,1.17l-2.33,6.15c-.06.16,0,.35.3.35h1.72a.44.44,0,0,0,.41-.27l1.11-3s.14-.38.14,0c0,.57,0,2.09,0,2.82,0,.24,0,.4.33.4h5.66c.4,0,.35-.21.35-.52V85.46c0-.28.09-.09.09-.09l1,3a.47.47,0,0,0,.46.32h1.43c.33,0,.37-.19.32-.35Zm-5.32-1.76-1.17,1.07a.3.3,0,0,1-.4,0l-1.17-1.07a.53.53,0,0,1-.15-.45L58,83.23s0-.18,0-.21,0-.61,0-.61a.25.25,0,0,1,.25-.27h1.33a.25.25,0,0,1,.25.27l0,.61a.88.88,0,0,0,0,.21l.61,2.91a.53.53,0,0,1-.14.45Zm0,0" style="fill: #e31d1a"/>
      <path d="M80.21,79.89a3.46,3.46,0,1,0-3.48-3.46,3.47,3.47,0,0,0,3.48,3.46Zm0,0" style="fill: #e31d1a"/>
      <path d="M86.9,88.35,84.58,82.2C84.52,82.05,84,81,83.09,81H77.34a1.69,1.69,0,0,0-1.49,1.17l-2.32,6.15c-.06.16,0,.35.3.35h1.72a.44.44,0,0,0,.41-.27l1.1-3s.14-.38.14,0c0,.57,0,2.09,0,2.82,0,.24,0,.4.33.4h5.67c.4,0,.35-.21.35-.52,0-.77,0-2.18,0-2.72,0-.28.1-.09.1-.09l1,3a.49.49,0,0,0,.47.32h1.42c.34,0,.38-.19.32-.35Zm-5.32-1.76-1.17,1.07a.3.3,0,0,1-.4,0l-1.17-1.07a.53.53,0,0,1-.14-.45l.61-2.91a.88.88,0,0,0,0-.21l0-.61a.25.25,0,0,1,.25-.27h1.33a.25.25,0,0,1,.25.27s0,.46,0,.61,0,.16,0,.21l.61,2.91a.53.53,0,0,1-.15.45Zm0,0" style="fill: #e31d1a"/>
    </g>
  </g>
</svg>
